<svg class="svg-icon" style="width: 1em;height: 1em;vertical-align: middle;fill: currentColor;overflow: hidden;" viewBox="0 0 1024 1024" version="1.1" xmlns="http://www.w3.org/2000/svg"><path d="M445.217391 617.73913c0-21.147826-17.808696-38.956522-38.956521-38.956521h-144.695653c-21.147826 0-38.956522 17.808696-38.956521 38.956521v144.695653c0 21.147826 17.808696 38.956522 38.956521 38.956521h144.695653c21.147826 0 38.956522-17.808696 38.956521-38.956521v-144.695653zM300.521739 656.695652h66.782609v66.782609h-66.782609v-66.782609z m711.234783-373.982609l-99.06087-100.173913V66.782609c0-24.486957-20.034783-44.521739-45.634782-44.521739H156.93913C131.33913 22.26087 111.304348 42.295652 111.304348 66.782609v115.756521l-99.06087 100.173913c-7.791304 7.791304-12.243478 18.921739-12.243478 31.165218v113.530435C0 451.895652 20.034783 467.478261 44.521739 467.478261h934.956522c24.486957 0 44.521739-15.582609 44.521739-41.182609V313.878261c0-12.243478-4.452174-23.373913-12.243478-31.165218zM823.652174 111.304348v55.652174H200.347826v-55.652174h623.304348z m111.304348 267.130435H89.043478v-46.747826l91.269565-86.817392h663.373914l91.269565 86.817392V378.434783z m22.260869 179.2V957.217391c0 24.486957-20.034783 44.521739-44.521739 44.521739H760.208696c-24.486957 0-44.521739-17.808696-44.521739-42.295652V723.478261H612.173913v233.73913c0 24.486957-21.147826 44.521739-45.634783 44.521739H112.417391C87.930435 1001.73913 66.782609 981.704348 66.782609 957.217391V557.634783c0-24.486957 20.034783-44.521739 44.521739-44.52174s44.521739 20.034783 44.521739 44.52174V912.695652h367.304348V674.504348c0-24.486957 18.921739-40.069565 43.408695-40.069565h192.556522c24.486957 0 41.182609 15.582609 41.182609 40.069565V912.695652h66.782609V557.634783c0-24.486957 20.034783-44.521739 44.521739-44.52174s45.634783 20.034783 45.634782 44.52174z"  /></svg>